<?xml version="1.0" encoding="UTF-8"?>
<svg xmlns="http://www.w3.org/2000/svg" xmlns:xlink="http://www.w3.org/1999/xlink" width="1367pt" height="200pt" viewBox="0 0 1367 200" version="1.1">
<defs>
<linearGradient id="linear0" gradientUnits="userSpaceOnUse" x1="0.814" y1="0.106" x2="0.213" y2="0.854" gradientTransform="matrix(388.820312,0,0,164.328125,978.195312,0.246094)">
<stop offset="0" style="stop-color:rgb(100%,100%,100%);stop-opacity:0;"/>
<stop offset="1" style="stop-color:rgb(100%,100%,100%);stop-opacity:0.2;"/>
</linearGradient>
<filter id="alpha" filterUnits="objectBoundingBox" x="0%" y="0%" width="100%" height="100%">
  <feColorMatrix type="matrix" in="SourceGraphic" values="0 0 0 0 1 0 0 0 0 1 0 0 0 0 1 0 0 0 1 0"/>
</filter>
<mask id="mask0">
  <g filter="url(#alpha)">
<rect x="0" y="0" width="1367" height="200" style="fill:rgb(0%,0%,0%);fill-opacity:0.2;stroke:none;"/>
  </g>
</mask>
<clipPath id="clip1">
  <rect x="0" y="0" width="1367" height="200"/>
</clipPath>
<g id="surface5" clip-path="url(#clip1)">
<path style=" stroke:none;fill-rule:nonzero;fill:rgb(100%,100%,100%);fill-opacity:1;" d="M 78.5 138.09375 C 72.261719 138.101562 66.28125 137.03125 61.882812 135.117188 C 57.460938 133.210938 54.980469 130.621094 55 127.921875 C 54.980469 125.222656 57.460938 122.632812 61.882812 120.726562 C 66.28125 118.8125 72.261719 117.742188 78.5 117.75 C 84.734375 117.742188 90.71875 118.816406 95.117188 120.730469 C 99.539062 122.632812 102.015625 125.222656 102 127.921875 C 102.015625 130.621094 99.539062 133.210938 95.117188 135.117188 C 90.71875 137.03125 84.734375 138.101562 78.5 138.09375 Z M 78.5 120.65625 C 69.234375 120.660156 61.722656 123.910156 61.714844 127.921875 C 61.722656 131.933594 69.230469 135.183594 78.5 135.1875 C 87.765625 135.183594 95.277344 131.933594 95.285156 127.921875 C 95.273438 123.910156 87.765625 120.660156 78.5 120.65625 Z M 78.5 120.65625 "/>
</g>
<linearGradient id="linear1" gradientUnits="userSpaceOnUse" x1="0.093" y1="0.119" x2="0.916" y2="0.851" gradientTransform="matrix(597.515625,0,0,148.980469,0,0)">
<stop offset="0" style="stop-color:rgb(100%,100%,100%);stop-opacity:0;"/>
<stop offset="1" style="stop-color:rgb(100%,100%,100%);stop-opacity:0.2;"/>
</linearGradient>
<mask id="mask1">
  <g filter="url(#alpha)">
<rect x="0" y="0" width="1367" height="200" style="fill:rgb(0%,0%,0%);fill-opacity:0.2;stroke:none;"/>
  </g>
</mask>
<clipPath id="clip2">
  <rect x="0" y="0" width="1367" height="200"/>
</clipPath>
<g id="surface8" clip-path="url(#clip2)">
<path style=" stroke:none;fill-rule:nonzero;fill:rgb(100%,100%,100%);fill-opacity:1;" d="M 971.621094 42.855469 C 968.539062 42.859375 965.578125 42.332031 963.402344 41.386719 C 961.21875 40.445312 959.992188 39.164062 960.003906 37.828125 C 959.992188 36.492188 961.21875 35.210938 963.402344 34.269531 C 965.578125 33.324219 968.539062 32.792969 971.621094 32.796875 C 974.707031 32.792969 977.664062 33.324219 979.839844 34.269531 C 982.027344 35.210938 983.25 36.492188 983.242188 37.828125 C 983.25 39.164062 982.027344 40.445312 979.839844 41.386719 C 977.664062 42.332031 974.707031 42.859375 971.621094 42.855469 Z M 971.621094 34.230469 C 967.039062 34.234375 963.328125 35.839844 963.320312 37.824219 C 963.328125 39.808594 967.039062 41.414062 971.621094 41.417969 C 976.203125 41.414062 979.914062 39.808594 979.921875 37.824219 C 979.914062 35.839844 976.203125 34.234375 971.621094 34.230469 Z M 971.621094 34.230469 "/>
</g>
<mask id="mask2">
  <g filter="url(#alpha)">
<rect x="0" y="0" width="1367" height="200" style="fill:rgb(0%,0%,0%);fill-opacity:0.2;stroke:none;"/>
  </g>
</mask>
<clipPath id="clip3">
  <rect x="0" y="0" width="1367" height="200"/>
</clipPath>
<g id="surface11" clip-path="url(#clip3)">
<path style=" stroke:none;fill-rule:nonzero;fill:rgb(100%,100%,100%);fill-opacity:1;" d="M 439 52.164062 C 439 55.390625 432.957031 58.007812 425.5 58.007812 C 418.042969 58.007812 412 55.390625 412 52.164062 C 412 48.9375 418.042969 46.320312 425.5 46.320312 C 432.957031 46.320312 439 48.9375 439 52.164062 Z M 439 52.164062 "/>
</g>
<mask id="mask3">
  <g filter="url(#alpha)">
<rect x="0" y="0" width="1367" height="200" style="fill:rgb(0%,0%,0%);fill-opacity:0.2;stroke:none;"/>
  </g>
</mask>
<clipPath id="clip4">
  <rect x="0" y="0" width="1367" height="200"/>
</clipPath>
<g id="surface14" clip-path="url(#clip4)">
<path style=" stroke:none;fill-rule:nonzero;fill:rgb(100%,100%,100%);fill-opacity:1;" d="M 1234 131.386719 C 1234 135.808594 1225.71875 139.394531 1215.5 139.394531 C 1205.28125 139.394531 1197 135.808594 1197 131.386719 C 1197 126.960938 1205.28125 123.375 1215.5 123.375 C 1225.71875 123.375 1234 126.960938 1234 131.386719 Z M 1234 131.386719 "/>
</g>
<mask id="mask4">
  <g filter="url(#alpha)">
<rect x="0" y="0" width="1367" height="200" style="fill:rgb(0%,0%,0%);fill-opacity:0.2;stroke:none;"/>
  </g>
</mask>
<clipPath id="clip5">
  <rect x="0" y="0" width="1367" height="200"/>
</clipPath>
<g id="surface17" clip-path="url(#clip5)">
<path style=" stroke:none;fill-rule:nonzero;fill:rgb(100%,100%,100%);fill-opacity:1;" d="M 631 162.554688 C 631 164.585938 627.195312 166.234375 622.5 166.234375 C 617.804688 166.234375 614 164.585938 614 162.554688 C 614 160.523438 617.804688 158.875 622.5 158.875 C 627.195312 158.875 631 160.523438 631 162.554688 Z M 631 162.554688 "/>
</g>
<mask id="mask5">
  <g filter="url(#alpha)">
<rect x="0" y="0" width="1367" height="200" style="fill:rgb(0%,0%,0%);fill-opacity:0.2;stroke:none;"/>
  </g>
</mask>
<clipPath id="clip6">
  <rect x="0" y="0" width="1367" height="200"/>
</clipPath>
<g id="surface20" clip-path="url(#clip6)">
<path style=" stroke:none;fill-rule:nonzero;fill:rgb(100%,100%,100%);fill-opacity:1;" d="M 706.109375 33.289062 C 705.964844 33.058594 705.460938 32.5 703.855469 32.320312 L 678.226562 29.398438 C 676.636719 29.21875 675.566406 29.589844 675.179688 29.757812 C 674.792969 29.925781 673.9375 30.390625 674.363281 31.082031 L 681.175781 42.074219 C 681.601562 42.765625 682.878906 42.980469 683.40625 43.042969 C 683.9375 43.105469 685.292969 43.195312 686.460938 42.695312 L 705.28125 34.617188 C 706.457031 34.113281 706.253906 33.519531 706.109375 33.289062 M 710.9375 32.726562 C 711.652344 33.882812 711.042969 35.191406 708.800781 36.152344 L 689.980469 44.230469 C 685.527344 46.140625 677.96875 45.257812 676.34375 42.636719 L 669.535156 31.640625 C 667.910156 29.019531 673.433594 26.617188 679.5 27.308594 L 705.128906 30.226562 C 708.183594 30.574219 710.222656 31.574219 710.9375 32.726562 Z M 710.9375 32.726562 "/>
</g>
<mask id="mask6">
  <g filter="url(#alpha)">
<rect x="0" y="0" width="1367" height="200" style="fill:rgb(0%,0%,0%);fill-opacity:0.2;stroke:none;"/>
  </g>
</mask>
<clipPath id="clip7">
  <rect x="0" y="0" width="1367" height="200"/>
</clipPath>
<g id="surface23" clip-path="url(#clip7)">
<path style=" stroke:none;fill-rule:nonzero;fill:rgb(100%,100%,100%);fill-opacity:1;" d="M 156.46875 22.960938 C 156.953125 22.824219 158.074219 22.425781 157.976562 21.671875 L 156.621094 11.398438 C 156.523438 10.652344 155.320312 10.3125 154.808594 10.199219 C 154.292969 10.085938 152.945312 9.867188 151.496094 10.277344 L 131.71875 15.835938 C 130.269531 16.246094 130.179688 16.867188 130.207031 17.117188 C 130.238281 17.363281 130.46875 17.980469 132.003906 18.320312 L 153.136719 23.035156 C 154.683594 23.378906 155.980469 23.097656 156.46875 22.960938 M 158.648438 24.414062 C 156.570312 24.996094 153.824219 25.136719 151.304688 24.574219 L 130.171875 19.863281 C 125.175781 18.746094 124.820312 15.710938 129.535156 14.386719 L 149.316406 8.824219 C 154.03125 7.496094 160.296875 8.871094 160.617188 11.300781 L 161.96875 21.574219 C 162.132812 22.800781 160.722656 23.828125 158.648438 24.414062 Z M 158.648438 24.414062 "/>
</g>
<mask id="mask7">
  <g filter="url(#alpha)">
<rect x="0" y="0" width="1367" height="200" style="fill:rgb(0%,0%,0%);fill-opacity:0.160784;stroke:none;"/>
  </g>
</mask>
<clipPath id="clip8">
  <rect x="0" y="0" width="1367" height="200"/>
</clipPath>
<g id="surface26" clip-path="url(#clip8)">
<path style=" stroke:none;fill-rule:nonzero;fill:rgb(100%,100%,100%);fill-opacity:1;" d="M 766.664062 154.691406 C 816 139.105469 852 152.957031 865.332031 133.332031 C 876.671875 116.648438 953.558594 122.078125 970.589844 132.238281 C 871.503906 139.289062 850.089844 170.445312 766.199219 181.539062 C 750.609375 174.238281 738.164062 163.695312 766.664062 154.691406 Z M 766.664062 154.691406 "/>
</g>
<mask id="mask8">
  <g filter="url(#alpha)">
<rect x="0" y="0" width="1367" height="200" style="fill:rgb(0%,0%,0%);fill-opacity:0.2;stroke:none;"/>
  </g>
</mask>
<clipPath id="clip9">
  <rect x="0" y="0" width="1367" height="200"/>
</clipPath>
<g id="surface29" clip-path="url(#clip9)">
<path style=" stroke:none;fill-rule:nonzero;fill:rgb(100%,100%,100%);fill-opacity:1;" d="M 305 127.488281 C 305 129.761719 300.746094 131.601562 295.5 131.601562 C 290.253906 131.601562 286 129.761719 286 127.488281 C 286 125.21875 290.253906 123.375 295.5 123.375 C 300.746094 123.375 305 125.21875 305 127.488281 Z M 305 127.488281 "/>
</g>
</defs>
<g id="surface1">
<path style=" stroke:none;fill-rule:nonzero;fill:rgb(2.352941%,13.72549%,27.058824%);fill-opacity:1;" d="M 0 200 C 0 200 138.5 151.113281 310 147.453125 C 481.5 143.789062 518.5 182.339844 686 185.355469 C 853.5 188.371094 845.5 135.390625 994 131.082031 C 1142.5 126.773438 1182.5 171.140625 1280 168.125 C 1377.5 165.109375 1366.667969 149.203125 1366.667969 149.203125 L 1366.667969 0.285156 L 0 0 Z M 0 200 "/>
<path style=" stroke:none;fill-rule:nonzero;fill:url(#linear0);" d="M 1273.335938 81.386719 C 1232 51.949219 1193.335938 133.910156 1134.667969 135.640625 C 1105.132812 136.511719 1100.941406 126.707031 1092.152344 116.898438 C 1083.484375 107.222656 1070.34375 97.550781 1024 98.125 C 930.667969 99.277344 992 36.941406 1093.335938 35.210938 C 1160.804688 34.054688 1163.84375 13.714844 1158.34375 0.246094 L 1366.667969 0.289062 L 1366.667969 149.207031 C 1366.667969 149.207031 1373.257812 158.886719 1329.851562 164.574219 C 1321.667969 143.25 1302.992188 102.507812 1273.335938 81.386719 Z M 1273.335938 81.386719 "/>
<use xlink:href="#surface5" mask="url(#mask0)"/>
<path style=" stroke:none;fill-rule:nonzero;fill:url(#linear1);" d="M 0 148.980469 L 0 0 L 5.660156 0 C 83.257812 22.402344 94.257812 68.933594 190 45.023438 C 242.730469 31.851562 306.769531 13.785156 366.222656 0.078125 L 597.515625 0.125 C 561.386719 10.191406 502.167969 21.308594 512 45.023438 C 526 78.789062 572 123.808594 482 124.675781 C 443.609375 125.042969 411.039062 115.804688 377.773438 106.5625 C 333.054688 94.140625 287.074219 81.71875 224 92.640625 C 129.535156 109 40.96875 148.980469 0.101562 148.980469 Z M 0 148.980469 "/>
<use xlink:href="#surface8" mask="url(#mask1)"/>
<use xlink:href="#surface11" mask="url(#mask2)"/>
<use xlink:href="#surface14" mask="url(#mask3)"/>
<use xlink:href="#surface17" mask="url(#mask4)"/>
<use xlink:href="#surface20" mask="url(#mask5)"/>
<use xlink:href="#surface23" mask="url(#mask6)"/>
<use xlink:href="#surface26" mask="url(#mask7)"/>
<use xlink:href="#surface29" mask="url(#mask8)"/>
</g>
</svg>
